# xmcd
#
# Track frame offsets:
#	182
#	14472
#	31505
#	47407
#	72295
#	87595
#	105782
#	119872
#
# Disc length: 1772
#
# Revision: 1
# Processed by: cddbd v1.5.1PL0 Copyright (c) Steve Scherf et al.
# Submitted via: CDex 1.51
# Normalized: r0:DSETVAR1,TDELIM( - ),TSWAP
#
DISCID=5d06ea08
DTITLE=Various Artist - Kellog's Country
DYEAR=1998
DGENRE=Country
TTITLE0=Terri Clark - Better Things To Do
TTITLE1=John Anderson - Brown Eyed Girl
TTITLE2=Toby Keith - Should've Been A Cowboy
TTITLE3=Kathy Mattea - Love Travels
TTITLE4=Kim Richey - Just My Luck
TTITLE5=Billy Ray Cyrus - Heart Of A Woman
TTITLE6=Mark Wills - Jacob's Ladder
TTITLE7=Sammy Kershaw - She Don't Know She's Beautiful
EXTD=YEAR: 1998
EXTT0=
EXTT1=
EXTT2=
EXTT3=
EXTT4=
EXTT5=
EXTT6=
EXTT7=
PLAYORDER=
